{"title":"The Conjuring 2013 READNFO VODRiP XViD UNiQUE","uid":8774735,"size":1499230898,"categoryP":"video","categoryS":"movies","magnet":"?xt=urn:btih:6340d2039cfcd10a1513725505be619d444112d9&amp;dn=The+Conjuring+2013+READNFO+VODRiP+XViD+UNiQUE+&amp;tr=udp%3A%2F%2Ftracker.openbittorrent.com%3A80&amp;tr=udp%3A%2F%2Fopen.demonii.com%3A1337&amp;tr=udp%3A%2F%2Ftracker.coppersurfer.tk%3A6969&amp;tr=udp%3A%2F%2Fexodus.desync.com%3A6969","seeders":1,"leechers":0,"uploader":"scenetime55","files":5,"time":1375525845,"description":"\nFormat                                   : AVI\nFormat/Info                              : Audio Video Interleave\nFile size                                : 1.39 GiB\nDuration                                 : 1h 47mn\nOverall bit rate                         : 1 852 Kbps\nWriting application                      : VirtualDubMod 1.5.10.2 (build 2540/release)\nWriting library                          : VirtualDubMod build 2540/release\n\nVideo\nID                                       : 0\nFormat                                   : MPEG-4 Visual\nFormat profile                           : Advanced Simple@L5\nFormat settings, BVOP                    : 2\nFormat settings, QPel                    : No\nFormat settings, GMC                     : No warppoints\nFormat settings, Matrix                  : Default (H.263)\nMuxing mode                              : Packed bitstream\nCodec ID                                 : XVID\nCodec ID/Hint                            : XviD\nDuration                                 : 1h 47mn\nBit rate                                 : 1 714 Kbps\nWidth                                    : 720 pixels\nHeight                                   : 288 pixels\nDisplay aspect ratio                     : 2.500\nFrame rate                               : 25.000 fps\nColor space                              : YUV\nChroma subsampling                       : 4:2:0\nBit depth                                : 8 bits\nScan type                                : Progressive\nCompression mode                         : Lossy\nBits/(Pixel*Frame)                       : 0.331\nStream size                              : 1.29 GiB (93%)\nWriting library                          : XviD 64\n\nAudio\nID                                       : 1\nFormat                                   : MPEG Audio\nFormat version                           : Version 1\nFormat profile                           : Layer 3\nMode                                     : Joint stereo\nMode extension                           : MS Stereo\nCodec ID                                 : 55\nCodec ID/Hint                            : MP3\nDuration                                 : 1h 47mn\nBit rate mode                            : Constant\nBit rate                                 : 128 Kbps\nChannel(s)                               : 2 channels\nSampling rate                            : 44.1 KHz\nCompression mode                         : Lossy\nStream size                              : 98.3 MiB (7%)\nAlignment                                : Split accross interleaves\nInterleave, duration                     : 40 ms (1.00 video frame)\nInterleave, preload duration             : 500 ms\n\nSource Used        The.Conjuring.2013.WEB-DL.X264 MP3 - SmY               - Thanks\n\n\nBasically READNFO is \n\n\nNever quite sure how to tag these but one thing is for sure R6 tag is incorrect ,lets go through it again :lol:\n\nR6 is a DVD region code nothing more than that it is not a continent or region code for anything other than DVD ;-)\n\n\nSometimes these look like cams ,sometimes ,they are supposed to be from VOD so figure that \n\n","torrent":{"xt":"urn:btih:6340d2039cfcd10a1513725505be619d444112d9","amp;dn":"The+Conjuring+2013+READNFO+VODRiP+XViD+UNiQUE+","amp;tr":["udp%3A%2F%2Ftracker.openbittorrent.com%3A80","udp%3A%2F%2Fopen.demonii.com%3A1337","udp%3A%2F%2Ftracker.coppersurfer.tk%3A6969","udp%3A%2F%2Fexodus.desync.com%3A6969"],"infoHash":"6340d2039cfcd10a1513725505be619d444112d9","infoHashBuffer":{"type":"Buffer","data":[99,64,210,3,156,252,209,10,21,19,114,85,5,190,97,157,68,65,18,217]},"announce":[],"urlList":[]}}